<?xml version="1.0" encoding="iso-8859-1"?>
<!-- Generator: Adobe Illustrator 19.1.0, SVG Export Plug-In . SVG Version: 6.00 Build 0)  -->
<svg xmlns="http://www.w3.org/2000/svg" xmlns:xlink="http://www.w3.org/1999/xlink" version="1.1" id="Capa_1" x="0px" y="0px" viewBox="0 0 66.915 66.915" style="enable-background:new 0 0 66.915 66.915;" xml:space="preserve" width="512px" height="512px">
<g>
	<g>
		<path d="M21.761,35.201h28.708c1.104,0,2-0.896,2-2s-0.896-2-2-2H21.512l8.045-7.855c0.781-0.781,0.781-1.952,0-2.733    s-2.048-0.734-2.828,0.047L15.394,32.02c-0.375,0.375-0.586,0.896-0.586,1.426s0.211,1.045,0.586,1.42L26.73,46.203    c0.391,0.391,0.902,0.587,1.414,0.587s1.024-0.194,1.415-0.585c0.781-0.781,0.781-2.237,0-3.018L21.761,35.201z" fill="#cfcfcf"/>
		<path d="M66.915,33.457C66.915,15.009,51.906,0,33.458,0C15.009,0,0,15.009,0,33.457c0,18.449,15.009,33.458,33.458,33.458    C51.907,66.915,66.915,51.906,66.915,33.457z M4,33.457C4,17.215,17.215,4,33.458,4s29.457,13.215,29.457,29.457    c0,16.243-13.214,29.458-29.457,29.458S4,49.7,4,33.457z" fill="#cfcfcf"/>
	</g>
</g>
<g>
</g>
<g>
</g>
<g>
</g>
<g>
</g>
<g>
</g>
<g>
</g>
<g>
</g>
<g>
</g>
<g>
</g>
<g>
</g>
<g>
</g>
<g>
</g>
<g>
</g>
<g>
</g>
<g>
</g>
</svg>
