<?xml version="1.0" encoding="iso-8859-1"?>
<!-- Generator: Adobe Illustrator 19.0.0, SVG Export Plug-In . SVG Version: 6.00 Build 0)  -->
<svg xmlns="http://www.w3.org/2000/svg" xmlns:xlink="http://www.w3.org/1999/xlink" version="1.1" id="Layer_1" x="0px" y="0px" viewBox="0 0 299.898 299.898" style="enable-background:new 0 0 299.898 299.898;" xml:space="preserve" width="512px" height="512px">
<g>
	<g>
		<g>
			<path d="M92.488,15.666c-0.428-1.329-1.214-2.44-2.213-3.274c-0.025-0.021-0.049-0.043-0.074-0.064     c-0.131-0.107-0.267-0.205-0.405-0.302c-0.06-0.043-0.119-0.087-0.181-0.128c-0.111-0.072-0.225-0.138-0.339-0.204     c-0.093-0.054-0.185-0.111-0.281-0.161c-0.09-0.047-0.184-0.087-0.276-0.13c-0.123-0.058-0.246-0.118-0.374-0.169     c-0.06-0.024-0.122-0.042-0.183-0.065c-0.146-0.054-0.291-0.112-0.443-0.157c-0.111-0.032-0.222-0.052-0.333-0.078     c-1.201-0.294-2.491-0.283-3.758,0.099c-0.034,0.01-0.07,0.017-0.104,0.028c-0.011,0.003-0.021,0.005-0.032,0.009     c-0.122,0.039-0.237,0.09-0.356,0.135c-0.092,0.035-0.185,0.066-0.275,0.104c-0.131,0.056-0.255,0.121-0.381,0.184     c-0.082,0.041-0.166,0.079-0.247,0.124c-0.12,0.066-0.234,0.139-0.349,0.211c-0.083,0.052-0.167,0.102-0.248,0.157     c-0.1,0.069-0.195,0.143-0.291,0.217c-0.092,0.07-0.184,0.138-0.272,0.213c-0.075,0.064-0.146,0.132-0.219,0.198     c-0.102,0.094-0.204,0.188-0.301,0.288c-0.051,0.053-0.098,0.108-0.148,0.163c-0.11,0.12-0.218,0.242-0.32,0.371     c-0.032,0.04-0.06,0.082-0.091,0.122c-0.11,0.146-0.218,0.294-0.317,0.449c-0.019,0.03-0.036,0.062-0.055,0.092     c-0.103,0.165-0.201,0.333-0.291,0.509c-0.014,0.027-0.026,0.056-0.039,0.084c-0.088,0.178-0.172,0.359-0.247,0.546     c-0.01,0.025-0.017,0.05-0.027,0.075c-0.065,0.169-0.13,0.338-0.183,0.514l-78.54,264.18c-1.121,3.777,1.035,7.754,4.812,8.882     c0.685,0.193,1.364,0.293,2.035,0.293c3.084,0,5.919-1.992,6.847-5.105l17.587-59.155h113.755l19.241,59.326     c0.978,3.006,3.777,4.934,6.79,4.934c0.728,0,1.471-0.114,2.206-0.336c3.763-1.214,5.819-5.255,4.598-8.996L92.488,15.666z      M35.823,210.638L85.982,41.921l54.719,168.717H35.823z" fill="#933EC5"/>
			<path d="M298.77,166.506c-7.668-11.967-18.214-19.292-31.38-21.798c-32.544-6.205-69.529,20.213-71.093,21.334     c-3.206,2.313-3.913,6.769-1.614,9.967s6.769,3.906,9.967,1.607c0.328-0.25,33.444-23.89,60.069-18.885     c8.661,1.649,15.508,6.169,20.884,13.787v24.607c-16.495-0.857-60.987-1.067-82.888,19.054     c-8.668,7.954-12.981,18.078-12.831,30.109c0.207,16.551,9.175,29.588,25.247,36.742c9.082,4.041,20.135,5.969,31.395,5.969     c13.801,0,27.898-2.889,39.077-8.251v1.289c0,3.948,3.192,7.14,7.14,7.14s7.14-3.192,7.154-7.14V170.354     C299.898,168.99,299.512,167.648,298.77,166.506z M220.944,269.993c-10.988-4.905-16.636-12.938-16.779-23.883     c-0.1-7.904,2.578-14.23,8.197-19.407c18.059-16.615,59.143-16.012,73.242-15.259v52.861     C271.461,274.307,241.203,279.02,220.944,269.993z" fill="#933EC5"/>
		</g>
	</g>
</g>
<g>
</g>
<g>
</g>
<g>
</g>
<g>
</g>
<g>
</g>
<g>
</g>
<g>
</g>
<g>
</g>
<g>
</g>
<g>
</g>
<g>
</g>
<g>
</g>
<g>
</g>
<g>
</g>
<g>
</g>
</svg>
